<svg width="800" height="240" xmlns="http://www.w3.org/2000/svg">
  <defs>
    <linearGradient id="shine" x1="0" y1="0" x2="1" y2="0">
      <stop offset="0%" stop-color="#58a6ff" />
      <stop offset="40%" stop-color="#58a6ff" />
      <stop offset="50%" stop-color="#ffffff" />
      <stop offset="60%" stop-color="#58a6ff" />
      <stop offset="100%" stop-color="#58a6ff" />
      <animateTransform attributeName="gradientTransform" type="translate" values="-1 0; 2 0" dur="3s" repeatCount="indefinite" />
    </linearGradient>
  </defs>
  <style>
    .bg { fill: #0d1117; }
    .dot-r { fill: #ff5f56; }
    .dot-y { fill: #ffbd2e; }
    .dot-g { fill: #27c93f; }
    .text-title { font-family: 'Fira Code', 'JetBrains Mono', ui-monospace, SFMono-Regular, Menlo, Monaco, Consolas, monospace; font-size: 42px; fill: url(#shine); font-weight: 800; }
    .text-subtitle { font-family: 'Fira Code', 'JetBrains Mono', ui-monospace, SFMono-Regular, Menlo, Monaco, Consolas, monospace; font-size: 18px; fill: #8b949e; }
    .text-prompt { font-family: 'Fira Code', 'JetBrains Mono', ui-monospace, SFMono-Regular, Menlo, Monaco, Consolas, monospace; font-size: 18px; fill: #3fb950; font-weight: bold; }
    .text-cmd { font-family: 'Fira Code', 'JetBrains Mono', ui-monospace, SFMono-Regular, Menlo, Monaco, Consolas, monospace; font-size: 18px; fill: #e6edf3; }
    .cursor { fill: #e6edf3; animation: blink 1s step-end infinite; }
    @keyframes blink { 50% { opacity: 0; } }
  </style>
  <rect width="100%" height="100%" class="bg" rx="8"/>
  <circle cx="24" cy="24" r="6" class="dot-r"/>
  <circle cx="44" cy="24" r="6" class="dot-y"/>
  <circle cx="64" cy="24" r="6" class="dot-g"/>
  
  <text x="40" y="90" class="text-title">Open Agent SDK</text>
  <text x="40" y="130" class="text-subtitle">An open-source alternative to Claude Agent SDK</text>
  
  <text x="40" y="180" class="text-prompt">></text>
  <text x="80" y="180" class="text-cmd">Initializing Agent Loop...<tspan class="cursor"> █</tspan></text>

  <!-- Pixel Art Robot -->
  <g transform="translate(600, 40) scale(6)" fill="#58a6ff">
    <rect x="4" y="2" width="8" height="6"/>
    <rect x="5" y="4" width="2" height="2" fill="#0d1117"/>
    <rect x="9" y="4" width="2" height="2" fill="#0d1117"/>
    <rect x="7" y="0" width="2" height="2"/>
    <rect x="3" y="9" width="10" height="8"/>
    <rect x="1" y="9" width="2" height="6"/>
    <rect x="13" y="9" width="2" height="6"/>
    <rect x="4" y="17" width="3" height="5"/>
    <rect x="9" y="17" width="3" height="5"/>
  </g>
</svg>