<svg width="420" height="92" viewBox="0 0 420 92" fill="none" xmlns="http://www.w3.org/2000/svg" role="img" aria-label="Open Agent SDK">
  <svg x="2" y="10" width="72" height="72" viewBox="0 0 128 128" fill="none">
    <rect width="128" height="128" rx="30" fill="#171D21"/>
    <path fill-rule="evenodd" clip-rule="evenodd" d="M64 24C86.0914 24 104 41.9086 104 64C104 86.0914 86.0914 104 64 104C41.9086 104 24 86.0914 24 64C24 41.9086 41.9086 24 64 24ZM64 37C49.0883 37 37 49.0883 37 64C37 78.9117 49.0883 91 64 91C78.9117 91 91 78.9117 91 64C91 49.0883 78.9117 37 64 37Z" fill="#FFF7EA"/>
    <path d="M44 89Q52.5 62.5 64 37" stroke="#FFF7EA" stroke-width="10" stroke-linecap="round"/>
    <path d="M84 89Q75.5 62.5 64 37" stroke="#FFF7EA" stroke-width="10" stroke-linecap="round"/>
    <path d="M55 72.5Q64 74 73 72.5" stroke="#FFF7EA" stroke-width="9" stroke-linecap="round"/>
    <circle cx="100" cy="28" r="6" fill="#D97945"/>
  </svg>
  <g fill="#171D21">
    <text x="92" y="39" font-size="28" font-family="'Avenir Next', 'SF Pro Display', 'Helvetica Neue', sans-serif" font-weight="700" letter-spacing="-0.9">Open Agent SDK</text>
    <text x="93.5" y="60" font-size="12.5" font-family="'Avenir Next', 'SF Pro Text', 'Helvetica Neue', sans-serif" font-weight="500" fill="#5E696E">Open-source agent runtime</text>
  </g>
</svg>
